<svg width="21" height="37" viewBox="0 0 21 37" xmlns="http://www.w3.org/2000/svg" xmlns:xlink="http://www.w3.org/1999/xlink"><title>map-marker-google</title><defs><linearGradient x1="50%" y1="0%" x2="50%" y2="100%" id="a"><stop stop-color="#FB7468" offset="0%"/><stop stop-color="#E8443C" offset="100%"/></linearGradient><path d="M10.5 36.325c2.533-7.454 4.434-12.548 5.704-15.28C18.11 16.947 21 15.001 21 10.5 21 4.701 16.299 0 10.5 0S0 4.701 0 10.5c0 4.59 2.658 6.449 4.66 10.545 1.333 2.731 3.28 7.825 5.84 15.28z" id="b"/></defs><g fill="none" fill-rule="evenodd"><use fill="url(#a)" xlink:href="#b"/><path stroke-opacity=".243" stroke="#000" d="M10.497 34.785c2.305-6.724 4.055-11.37 5.254-13.95.44-.946.937-1.808 1.615-2.848.164-.253 1.044-1.568 1.278-1.933C19.947 14.021 20.5 12.53 20.5 10.5c0-5.523-4.477-10-10-10s-10 4.477-10 10c0 2.118.534 3.644 1.783 5.654.242.39 1.29 1.987 1.559 2.415.494.79.899 1.504 1.267 2.257 1.261 2.582 3.055 7.231 5.388 13.959z"/><circle fill-opacity=".54" fill="#000" cx="10.5" cy="10.5" r="3.78"/></g></svg>