<svg width="20" height="35" viewBox="0 0 20 35" xmlns="http://www.w3.org/2000/svg" xmlns:xlink="http://www.w3.org/1999/xlink"><title>map-marker-new-pro</title><defs><linearGradient x1="50%" y1="0%" x2="50%" y2="100%" id="a"><stop stop-color="#50DE40" offset="0%"/><stop stop-color="#12944A" offset="100%"/></linearGradient><path d="M10 34.596c2.412-7.1 4.223-11.95 5.433-14.553C17.247 16.14 20 14.287 20 10c0-5.523-4.477-10-10-10S0 4.477 0 10c0 4.371 2.532 6.142 4.438 10.043 1.27 2.601 3.124 7.452 5.562 14.553z" id="b"/><path d="M2.517 11.894V5.808h1.568l.824 2.137a25.926 25.926 0 0 1 .339.997l.17.536c-.06-.528-.107-.98-.138-1.356a11.641 11.641 0 0 1-.047-.946V5.808H6.8v6.086H5.233l-.828-2.239c-.087-.239-.165-.463-.235-.672-.07-.209-.13-.408-.183-.597.034.428.06.802.075 1.12.016.318.023.596.023.835v1.553H2.517zm5.136 0V5.808h3.054V7.24h-1.41v.887h1.265v1.376H9.296v.93h1.411v1.462H7.653zm8.975 0h-1.585l-.378-2.132c-.074-.413-.129-.77-.166-1.072l-.047-.375a7.988 7.988 0 0 1-.028-.228c-.013.107-.033.308-.059.603a20.563 20.563 0 0 1-.114.997l-.312 2.207h-1.6l-1.356-6.086h1.624l.268 1.676c.103.667.174 1.191.213 1.572l.055.556.052-.477c.055-.557.126-1.087.212-1.588l.308-1.739h1.415l.276 1.463c.131.68.245 1.486.343 2.416.029-.418.06-.788.094-1.112.034-.323.073-.616.115-.879l.3-1.888h1.603l-1.233 6.086z" id="d"/><filter x="-19.6%" y="-49.3%" width="139.1%" height="198.6%" filterUnits="objectBoundingBox" id="c"><feOffset in="SourceAlpha" result="shadowOffsetOuter1"/><feGaussianBlur stdDeviation="1" in="shadowOffsetOuter1" result="shadowBlurOuter1"/><feComposite in="shadowBlurOuter1" in2="SourceAlpha" operator="out" result="shadowBlurOuter1"/><feColorMatrix values="0 0 0 0 0 0 0 0 0 0 0 0 0 0 0 0 0 0 0.6 0" in="shadowBlurOuter1"/></filter></defs><g fill="none" fill-rule="evenodd"><use fill="url(#a)" xlink:href="#b"/><path stroke-opacity=".243" stroke="#000" d="M9.997 33.055c2.184-6.368 3.843-10.773 4.982-13.223.42-.902.893-1.723 1.54-2.715.157-.24.994-1.493 1.217-1.84C18.975 13.344 19.5 11.927 19.5 10a9.5 9.5 0 0 0-19 0c0 2.012.507 3.462 1.695 5.372.23.37 1.228 1.892 1.484 2.3.471.753.857 1.434 1.208 2.152 1.198 2.452 2.9 6.858 5.11 13.231z"/><path fill-opacity=".545" fill="#000" d="M9.95567649 18.8445431L7.52786405 20.6084521 8.53764368 17.7498762 6 15.9061701 9.01992359 16.016365 10 13 10.930121 15.9992805 14 15.9061701 11.5226324 17.6861806 12.472136 20.6084521z"/><g><use fill="#000" filter="url(#c)" xlink:href="#d"/><use fill-opacity=".901" fill="#FFF" xlink:href="#d"/></g></g></svg>