<svg width="20" height="35" viewBox="0 0 20 35" xmlns="http://www.w3.org/2000/svg" xmlns:xlink="http://www.w3.org/1999/xlink"><title>map-marker-private-pro</title><defs><linearGradient x1="50%" y1="0%" x2="50%" y2="100%" id="a"><stop stop-color="#F8AA3B" offset="0%"/><stop stop-color="#DF6800" offset="100%"/></linearGradient><path d="M10 34.596c2.412-7.1 4.223-11.95 5.433-14.553C17.247 16.14 20 14.287 20 10c0-5.523-4.477-10-10-10S0 4.477 0 10c0 4.371 2.532 6.142 4.438 10.043 1.27 2.601 3.124 7.452 5.562 14.553z" id="b"/></defs><g fill="none" fill-rule="evenodd"><use fill="url(#a)" xlink:href="#b"/><path stroke-opacity=".243" stroke="#000" d="M9.997 33.055c2.184-6.368 3.843-10.773 4.982-13.223.42-.902.893-1.723 1.54-2.715.157-.24.994-1.493 1.217-1.84C18.975 13.344 19.5 11.927 19.5 10a9.5 9.5 0 0 0-19 0c0 2.012.507 3.462 1.695 5.372.23.37 1.228 1.892 1.484 2.3.471.753.857 1.434 1.208 2.152 1.198 2.452 2.9 6.858 5.11 13.231z"/><path d="M6 11.555H4.5V6h1.454c.724 0 1.261.148 1.611.443.413.347.62.83.62 1.45 0 .674-.22 1.176-.66 1.507-.299.223-.73.335-1.29.335H6v1.82zm0-3.069l.069.004a.578.578 0 0 0 .435-.168c.108-.111.162-.264.162-.458a.682.682 0 0 0-.158-.468.509.509 0 0 0-.403-.183H6v1.273zm5.124 3.07h-1.53L8.322 6h1.576l.273 1.587c.103.607.186 1.285.249 2.036.026-.333.058-.645.097-.935.038-.29.084-.574.136-.85L11.01 6h1.63l-1.515 5.555zm4.094 0h-1.5V7.33h-.828V6h3.188v1.331h-.86v4.224z" fill-opacity=".54" fill="#000"/><path fill-opacity=".545" fill="#000" d="M9.95567649 18.8445431L7.52786405 20.6084521 8.53764368 17.7498762 6 15.9061701 9.01992359 16.016365 10 13 10.930121 15.9992805 14 15.9061701 11.5226324 17.6861806 12.472136 20.6084521z"/></g></svg>