<svg width="20" height="35" viewBox="0 0 20 35" xmlns="http://www.w3.org/2000/svg" xmlns:xlink="http://www.w3.org/1999/xlink"><title>map-marker-new</title><defs><linearGradient x1="50%" y1="0%" x2="50%" y2="100%" id="a"><stop stop-color="#50DE40" offset="0%"/><stop stop-color="#12944A" offset="100%"/></linearGradient><path d="M10 34.596c2.412-7.1 4.223-11.95 5.433-14.553C17.247 16.14 20 14.287 20 10c0-5.523-4.477-10-10-10S0 4.477 0 10c0 4.371 2.532 6.142 4.438 10.043 1.27 2.601 3.124 7.452 5.562 14.553z" id="b"/><path d="M2.19 13.024V6.678h1.635l.859 2.228c.046.131.1.282.158.452.059.17.124.366.195.588l.177.559A48.087 48.087 0 0 1 5.07 9.09c-.033-.392-.05-.72-.05-.986V6.678h1.637v6.346H5.02l-.863-2.334c-.09-.25-.172-.483-.245-.701a12.851 12.851 0 0 1-.19-.623c.035.447.06.836.077 1.167.017.332.025.622.025.872v1.62H2.189zm5.354 0V6.678h3.186V8.17H9.258v.925h1.32v1.434h-1.32v.97h1.472v1.525H7.544zm9.359 0H15.25l-.394-2.223c-.077-.43-.134-.803-.173-1.118-.019-.156-.035-.287-.049-.39a8.329 8.329 0 0 1-.029-.24c-.014.113-.034.323-.061.63a21.442 21.442 0 0 1-.12 1.04l-.324 2.301H12.43l-1.414-6.346h1.694l.279 1.747c.107.696.18 1.243.222 1.64l.057.58.054-.498c.057-.58.131-1.133.222-1.656l.32-1.813h1.476l.288 1.525c.137.71.256 1.55.357 2.52.03-.436.063-.822.099-1.16.035-.336.075-.642.119-.916l.312-1.969h1.673l-1.286 6.346z" id="d"/><filter x="-18.8%" y="-47.3%" width="137.5%" height="194.6%" filterUnits="objectBoundingBox" id="c"><feOffset in="SourceAlpha" result="shadowOffsetOuter1"/><feGaussianBlur stdDeviation="1" in="shadowOffsetOuter1" result="shadowBlurOuter1"/><feComposite in="shadowBlurOuter1" in2="SourceAlpha" operator="out" result="shadowBlurOuter1"/><feColorMatrix values="0 0 0 0 0 0 0 0 0 0 0 0 0 0 0 0 0 0 0.603147645 0" in="shadowBlurOuter1"/></filter></defs><g fill="none" fill-rule="evenodd"><use fill="url(#a)" xlink:href="#b"/><path stroke-opacity=".243" stroke="#000" d="M9.997 33.055c2.184-6.368 3.843-10.773 4.982-13.223.42-.902.893-1.723 1.54-2.715.157-.24.994-1.493 1.217-1.84C18.975 13.344 19.5 11.927 19.5 10a9.5 9.5 0 0 0-19 0c0 2.012.507 3.462 1.695 5.372.23.37 1.228 1.892 1.484 2.3.471.753.857 1.434 1.208 2.152 1.198 2.452 2.9 6.858 5.11 13.231z"/><g><use fill="#000" filter="url(#c)" xlink:href="#d"/><use fill-opacity=".9" fill="#FFF" xlink:href="#d"/></g></g></svg>