<svg width="20" height="35" viewBox="0 0 20 35" xmlns="http://www.w3.org/2000/svg" xmlns:xlink="http://www.w3.org/1999/xlink"><title>map-marker-txt-star</title><defs><linearGradient x1="50%" y1="0%" x2="50%" y2="100%" id="a"><stop stop-color="#FB7468" offset="0%"/><stop stop-color="#E8443C" offset="100%"/></linearGradient><path d="M10 34.596c2.412-7.1 4.223-11.95 5.433-14.553C17.247 16.14 20 14.287 20 10c0-5.523-4.477-10-10-10S0 4.477 0 10c0 4.371 2.532 6.142 4.438 10.043 1.27 2.601 3.124 7.452 5.562 14.553z" id="b"/></defs><g fill="none" fill-rule="evenodd"><use fill="url(#a)" xlink:href="#b"/><path stroke-opacity=".243" stroke="#000" d="M9.997 33.055c2.184-6.368 3.843-10.773 4.982-13.223.42-.902.893-1.723 1.54-2.715.157-.24.994-1.493 1.217-1.84C18.975 13.344 19.5 11.927 19.5 10a9.5 9.5 0 0 0-19 0c0 2.012.507 3.462 1.695 5.372.23.37 1.228 1.892 1.484 2.3.471.753.857 1.434 1.208 2.152 1.198 2.452 2.9 6.858 5.11 13.231z"/><path fill-opacity=".545" fill="#000" d="M9.95567649 19.8445431L7.52786405 21.6084521 8.53764368 18.7498762 6 16.9061701 9.01992359 17.016365 10 14 10.930121 16.9992805 14 16.9061701 11.5226324 18.6861806 12.472136 21.6084521z"/><text font-family="Arial-Black, Arial Black" font-size="7" font-weight="700" letter-spacing="-.25" fill-opacity=".536" fill="#1B1E2B"><tspan x="2.597" y="12">TXT</tspan></text></g></svg>